<?xml version="1.0" standalone="no"?>
<!DOCTYPE svg PUBLIC "-//W3C//DTD SVG 20010904//EN"
 "http://www.w3.org/TR/2001/REC-SVG-20010904/DTD/svg10.dtd">
<svg version="1.0" xmlns="http://www.w3.org/2000/svg"
 width="512.000000pt" height="512.000000pt" viewBox="0 0 512.000000 512.000000"
 preserveAspectRatio="xMidYMid meet">

<g transform="translate(0.000000,512.000000) scale(0.100000,-0.100000)"
fill="#000000" stroke="none">
<path d="M2222 5018 l-73 -10 6 -31 c3 -18 9 -52 13 -77 l8 -45 45 2 c24 2 58
5 76 8 29 5 31 8 28 38 -3 18 -7 53 -10 80 -4 26 -9 46 -13 46 -4 -1 -40 -6
-80 -11z"/>
<path d="M1898 4952 c-32 -9 -58 -20 -58 -25 0 -6 9 -41 21 -79 16 -55 24 -68
37 -64 9 2 42 11 73 20 l56 16 -16 72 c-19 84 -23 86 -113 60z"/>
<path d="M1603 4849 l-71 -30 25 -57 c44 -100 36 -94 96 -68 28 13 60 26 69
29 15 5 14 12 -9 74 -14 37 -29 71 -32 75 -3 4 -38 -7 -78 -23z"/>
<path d="M1312 4704 c-37 -21 -61 -41 -59 -48 3 -7 22 -38 42 -70 l36 -57 57
32 c31 18 61 35 66 40 8 7 -60 139 -72 139 -4 0 -35 -16 -70 -36z"/>
<path d="M1048 4525 c-32 -25 -58 -48 -58 -51 0 -4 21 -33 47 -64 l47 -59 26
19 c14 10 40 32 59 47 l34 29 -43 62 c-24 34 -46 62 -49 62 -4 0 -32 -20 -63
-45z"/>
<path d="M2355 4549 c-289 -30 -600 -136 -842 -287 -877 -545 -1200 -1659
-749 -2577 103 -209 200 -347 361 -514 600 -623 1529 -787 2310 -406 222 108
386 226 561 406 283 292 459 639 536 1057 31 170 31 495 0 666 -80 435 -272
799 -579 1096 -170 165 -306 262 -518 366 -331 163 -714 231 -1080 193z m432
-164 c530 -69 991 -351 1291 -788 376 -548 424 -1255 127 -1854 -147 -295
-349 -527 -620 -708 -625 -419 -1429 -418 -2056 4 -437 294 -724 762 -794
1294 -111 859 421 1702 1247 1971 273 89 536 116 805 81z"/>
<path d="M2338 4225 c-636 -87 -1160 -518 -1368 -1126 -84 -244 -111 -549 -70
-799 66 -402 274 -769 580 -1024 405 -338 928 -467 1443 -356 615 133 1116
622 1267 1235 219 896 -317 1798 -1209 2031 -199 52 -441 66 -643 39z m512
-174 c314 -64 553 -193 781 -420 230 -231 366 -487 425 -806 26 -138 26 -392
0 -530 -59 -319 -195 -575 -425 -806 -231 -230 -487 -366 -806 -425 -138 -26
-392 -26 -530 0 -319 59 -575 195 -806 425 -231 232 -362 480 -426 806 -25
128 -24 396 1 530 56 300 193 568 401 784 255 265 562 416 945 465 79 10 347
-4 440 -23z"/>
<path d="M2843 2580 l-121 -480 42 -11 c22 -5 56 -14 75 -19 19 -5 36 -8 37
-7 5 4 241 952 239 955 -2 3 -129 38 -151 42 0 0 -55 -216 -121 -480z"/>
<path d="M1466 3024 c-70 -22 -149 -103 -170 -174 -9 -30 -16 -71 -16 -92 l0
-38 79 0 78 0 6 46 c7 69 51 109 117 109 43 0 54 -5 82 -33 30 -30 33 -37 32
-95 0 -37 -7 -74 -16 -93 -9 -17 -98 -128 -197 -248 -197 -237 -205 -253 -156
-301 l24 -25 256 0 255 0 0 80 0 80 -155 0 -155 0 130 156 c140 169 166 218
177 329 9 95 -16 165 -81 230 -80 80 -178 103 -290 69z"/>
<path d="M2352 3023 c-38 -34 -432 -677 -432 -706 0 -16 10 -38 25 -52 24 -25
27 -25 200 -25 l175 0 0 -80 0 -80 80 0 80 0 0 80 0 80 80 0 80 0 0 80 0 80
-80 0 -80 0 0 295 0 296 -25 24 c-29 30 -74 33 -103 8z m-32 -488 l0 -135 -85
0 c-47 0 -85 2 -85 5 0 7 162 265 166 265 2 0 4 -61 4 -135z"/>
<path d="M3225 3015 c-23 -22 -25 -32 -25 -120 l0 -95 80 0 80 0 0 40 0 40
131 0 c72 0 129 -3 127 -7 -105 -237 -160 -455 -174 -684 l-7 -109 81 0 82 0
0 58 c1 217 74 489 191 711 27 52 49 105 49 118 0 13 -11 35 -25 48 l-24 25
-271 0 -271 0 -24 -25z"/>
<path d="M4105 4375 c-25 -24 -25 -24 -25 -240 l0 -215 80 0 80 0 0 117 0 116
21 -19 c46 -41 155 -180 233 -297 340 -509 461 -1139 336 -1748 -205 -996
-1034 -1738 -2054 -1838 -60 -6 -133 -11 -163 -11 l-53 0 0 -82 0 -81 123 7
c281 16 536 71 781 168 723 286 1272 891 1480 1630 198 703 80 1452 -324 2055
-43 65 -113 159 -154 208 l-75 90 85 3 84 3 0 79 0 80 -215 0 c-216 0 -216 0
-240 -25z"/>
<path d="M802 4307 l-52 -53 53 -52 c29 -29 55 -52 58 -52 3 0 29 23 58 51
l53 51 -53 54 c-29 30 -56 54 -59 54 -3 0 -29 -24 -58 -53z"/>
<path d="M623 4107 c-11 -12 -34 -40 -51 -63 l-31 -41 65 -47 c36 -26 67 -46
68 -44 1 2 18 23 37 48 53 68 54 71 32 89 -12 9 -39 30 -60 48 l-40 32 -20
-22z"/>
<path d="M412 3801 c-17 -32 -32 -64 -32 -70 0 -10 110 -71 129 -71 10 0 71
103 71 119 0 10 -111 81 -126 81 -5 0 -24 -26 -42 -59z"/>
<path d="M274 3524 c-39 -89 -38 -92 35 -120 36 -13 69 -23 73 -22 8 3 58 114
58 129 0 5 -47 30 -108 56 l-33 14 -25 -57z"/>
<path d="M166 3212 c-9 -32 -16 -66 -16 -75 0 -16 38 -31 111 -43 l37 -6 15
53 c27 94 28 89 -38 110 -88 28 -90 27 -109 -39z"/>
<path d="M106 2908 c-4 -29 -9 -65 -12 -79 -5 -25 -2 -27 42 -33 26 -3 62 -6
80 -6 35 0 36 1 49 101 l6 47 -48 6 c-26 4 -62 9 -79 12 -32 6 -32 6 -38 -48z"/>
<path d="M80 2560 l0 -80 80 0 80 0 0 74 0 74 -31 6 c-17 3 -53 6 -80 6 l-49
0 0 -80z"/>
<path d="M150 2321 c-61 -7 -58 2 -45 -105 l7 -59 56 7 c104 12 104 12 97 65
-13 94 -15 101 -38 99 -12 -1 -47 -4 -77 -7z"/>
<path d="M213 2012 c-43 -10 -63 -20 -63 -31 0 -13 30 -132 35 -139 2 -2 37 7
79 20 58 17 75 26 72 38 -3 8 -12 41 -21 73 -9 31 -22 56 -28 56 -7 -1 -40 -8
-74 -17z"/>
<path d="M310 1713 c-36 -14 -66 -27 -68 -28 -4 -4 48 -128 58 -139 9 -9 140
48 140 61 0 15 -53 133 -59 132 -3 0 -35 -12 -71 -26z"/>
<path d="M438 1426 c-32 -17 -58 -35 -58 -40 0 -5 16 -38 36 -73 34 -61 37
-64 57 -50 12 7 43 26 70 41 l47 28 -35 61 c-19 34 -40 63 -47 63 -7 1 -39
-12 -70 -30z"/>
<path d="M621 1170 c-79 -57 -78 -53 -37 -108 57 -79 56 -78 120 -26 31 26 56
50 56 53 0 4 -19 32 -43 63 l-43 56 -53 -38z"/>
<path d="M806 918 l-57 -53 59 -58 59 -58 52 60 52 59 -51 51 c-28 28 -52 51
-54 51 -1 0 -29 -24 -60 -52z"/>
<path d="M1036 704 c-52 -64 -53 -63 26 -120 55 -41 51 -42 108 37 l38 53 -56
43 c-31 24 -59 43 -63 43 -3 0 -27 -25 -53 -56z"/>
<path d="M1295 527 c-21 -34 -40 -65 -42 -69 -4 -7 117 -78 133 -78 14 0 78
130 68 139 -5 4 -34 22 -65 39 l-56 32 -38 -63z"/>
<path d="M1569 374 c-17 -37 -27 -70 -22 -74 11 -11 134 -62 138 -58 9 9 55
142 50 146 -6 7 -118 52 -128 52 -5 0 -22 -30 -38 -66z"/>
<path d="M1862 264 c-13 -42 -22 -77 -20 -79 7 -5 126 -35 140 -35 12 0 20 16
28 52 6 29 13 62 16 74 5 20 -1 24 -53 39 -32 9 -65 18 -73 21 -12 3 -21 -14
-38 -72z"/>
<path d="M2171 207 c-17 -98 -18 -95 47 -102 31 -4 64 -9 74 -11 22 -6 24 0
32 83 l7 71 -28 5 c-15 3 -49 8 -74 12 l-47 6 -11 -64z"/>
</g>
</svg>
