<?xml version="1.0" standalone="no"?>
<!DOCTYPE svg PUBLIC "-//W3C//DTD SVG 20010904//EN"
 "http://www.w3.org/TR/2001/REC-SVG-20010904/DTD/svg10.dtd">
<svg version="1.0" xmlns="http://www.w3.org/2000/svg"
 width="512.000000pt" height="512.000000pt" viewBox="0 0 512.000000 512.000000"
 preserveAspectRatio="xMidYMid meet">

<g transform="translate(0.000000,512.000000) scale(0.100000,-0.100000)"
fill="#000000" stroke="none">
<path d="M1930 5102 c-19 -9 -45 -32 -57 -51 -23 -34 -23 -36 -23 -400 0 -348
1 -368 20 -399 61 -100 203 -95 258 9 23 44 23 44 20 399 -3 334 -4 357 -23
388 -39 65 -126 89 -195 54z"/>
<path d="M1134 4626 c-62 -27 -99 -104 -84 -172 7 -29 33 -62 112 -141 113
-115 140 -133 193 -133 78 0 136 54 143 133 6 72 -7 93 -125 209 -123 120
-162 137 -239 104z"/>
<path d="M2745 4626 c-49 -22 -241 -225 -250 -264 -23 -110 68 -199 182 -177
30 5 59 28 142 108 57 56 110 116 117 134 53 124 -71 253 -191 199z"/>
<path d="M3798 4584 c-130 -31 -111 -14 -949 -851 -623 -622 -788 -782 -792
-767 -4 11 -27 109 -52 219 -58 257 -94 335 -204 445 -86 86 -180 139 -296
166 -96 22 -245 15 -340 -17 -82 -27 -205 -107 -249 -162 l-31 -39 -3 -961 -2
-961 -234 -236 c-197 -198 -235 -241 -241 -272 -16 -83 -27 -69 513 -612 290
-290 521 -514 539 -522 27 -12 161 -14 775 -14 833 0 821 -1 968 71 85 41 85
42 761 718 620 621 678 681 707 742 89 186 54 397 -89 542 -51 51 -161 117
-195 117 -7 0 -11 37 -11 108 1 139 -24 211 -111 319 -40 51 -138 118 -194
135 l-40 12 6 66 c8 82 -11 186 -49 260 -33 66 -115 154 -175 188 -25 14 -47
27 -49 29 -3 2 117 126 266 276 300 302 321 331 344 475 32 195 -76 399 -256
488 -110 54 -206 65 -317 38z m182 -306 c77 -39 112 -116 90 -199 -11 -40 -76
-108 -680 -714 -709 -711 -701 -702 -735 -832 -67 -258 107 -524 376 -574 l67
-12 5 -54 c7 -64 54 -170 102 -229 66 -81 226 -164 314 -164 25 0 28 -4 38
-64 22 -127 96 -243 199 -311 33 -21 61 -40 64 -42 2 -2 -158 -166 -355 -364
-288 -288 -371 -365 -415 -387 l-55 -27 -710 -3 -709 -3 -403 403 c-222 222
-403 407 -403 413 0 6 86 96 191 200 105 105 197 202 205 217 12 23 14 172 14
976 l0 950 48 23 c69 34 206 34 276 0 59 -29 118 -86 146 -140 11 -23 56 -196
100 -386 44 -191 85 -356 92 -368 6 -12 54 -67 107 -123 159 -167 210 -276
218 -469 4 -82 1 -127 -11 -175 -23 -94 -87 -216 -150 -288 -81 -92 -88 -174
-20 -239 68 -64 152 -54 229 26 100 104 177 239 221 388 37 125 44 318 16 453
-34 163 -117 330 -224 446 l-42 45 805 805 c520 520 818 811 844 824 52 26 90
25 145 -2z m-340 -1250 c77 -39 112 -117 89 -200 -9 -37 -46 -78 -267 -299
-278 -278 -291 -287 -378 -274 -77 11 -144 88 -144 165 0 66 29 103 273 349
293 294 322 312 427 259z m333 -562 c69 -29 113 -109 102 -185 -6 -44 -18 -57
-208 -249 -111 -112 -214 -210 -229 -218 -35 -18 -111 -18 -147 1 -86 44 -120
156 -73 240 18 33 384 392 417 409 37 19 96 20 138 2z m340 -567 c39 -20 86
-72 98 -107 6 -19 8 -53 4 -80 -6 -44 -16 -57 -153 -194 -168 -170 -201 -190
-281 -169 -101 27 -157 132 -120 228 13 36 275 301 314 319 37 16 109 18 138
3z"/>
</g>
</svg>
