<?xml version="1.0" standalone="no"?>
<!DOCTYPE svg PUBLIC "-//W3C//DTD SVG 20010904//EN"
 "http://www.w3.org/TR/2001/REC-SVG-20010904/DTD/svg10.dtd">
<svg version="1.0" xmlns="http://www.w3.org/2000/svg"
 width="512.000000pt" height="512.000000pt" viewBox="0 0 512.000000 512.000000"
 preserveAspectRatio="xMidYMid meet">

<g transform="translate(0.000000,512.000000) scale(0.100000,-0.100000)"
fill="#000000" stroke="none">
<path d="M1770 4310 c-348 -49 -657 -240 -845 -524 -141 -215 -200 -409 -199
-666 0 -165 11 -230 61 -382 75 -228 224 -431 432 -588 l33 -25 -29 -105 c-28
-103 -29 -104 -63 -111 -19 -4 -39 -14 -45 -23 -19 -25 -167 -597 -167 -640 1
-47 26 -85 73 -108 28 -15 62 -18 205 -18 l171 0 6 -55 c3 -32 17 -76 33 -106
86 -156 286 -201 482 -107 81 38 190 141 228 213 l29 55 851 0 851 0 7 -48
c19 -142 131 -251 277 -268 166 -19 370 91 462 248 38 64 39 66 89 72 92 12
188 78 228 156 10 19 53 163 95 320 88 322 97 388 58 450 -13 21 -77 74 -155
131 l-133 95 -5 395 -5 396 -28 41 c-15 23 -46 52 -70 64 -41 22 -52 23 -358
26 l-317 3 -5 41 c-7 50 -47 95 -99 109 -23 6 -146 9 -312 7 -253 -3 -276 -4
-295 -22 -12 -11 -21 -27 -21 -38 0 -16 -9 -18 -90 -18 -64 0 -92 4 -94 13 -2
6 -15 60 -29 119 -28 119 -97 275 -167 378 -174 256 -434 432 -740 501 -99 22
-307 32 -400 19z m270 -150 c251 -31 459 -137 638 -325 190 -200 283 -436 283
-715 1 -297 -111 -556 -328 -760 -306 -290 -763 -365 -1150 -190 -156 71 -334
222 -433 369 -351 522 -159 1241 405 1517 200 97 378 129 585 104z m1280 -945
c24 -12 78 -15 286 -15 206 0 255 -3 251 -13 -6 -16 -467 -1736 -467 -1742 0
-3 -273 -5 -607 -4 l-608 0 -30 42 c-21 29 -52 53 -99 77 -65 33 -75 35 -160
34 -69 -1 -105 -6 -151 -24 -64 -24 -150 -77 -180 -110 -15 -17 -31 -20 -92
-20 -65 0 -77 3 -98 25 -14 13 -25 34 -25 47 0 42 67 268 85 288 23 26 42 25
167 -5 470 -114 940 20 1278 364 259 264 411 622 413 971 1 74 3 127 5 117 2
-9 16 -24 32 -32z m1318 -187 c7 -7 12 -40 12 -80 l0 -68 -170 0 c-201 0 -251
-9 -322 -58 -75 -53 -107 -112 -151 -280 -51 -193 -49 -252 11 -315 58 -61 60
-62 392 -67 l305 -5 122 -88 c67 -48 125 -92 129 -98 3 -6 3 -21 0 -35 -6 -22
-11 -24 -75 -24 -74 0 -94 -11 -106 -62 -11 -42 39 -88 95 -88 35 0 41 -3 36
-17 -3 -10 -26 -94 -51 -188 -54 -203 -65 -229 -107 -255 -47 -28 -55 -25 -63
23 -18 111 -96 211 -192 247 -194 73 -465 -47 -569 -251 l-24 -49 -201 0 -201
0 7 29 c3 15 32 125 64 242 l57 214 468 5 468 5 25 29 c18 22 23 35 18 55 -15
61 5 58 -480 63 -244 2 -447 6 -449 9 -4 4 260 1009 289 1099 6 20 13 20 329
20 237 0 325 -3 334 -12z m12 -508 l0 -200 -260 0 c-237 0 -261 2 -267 17 -7
18 51 260 73 304 7 15 27 38 44 53 l32 26 189 0 189 0 0 -200z"/>
<path d="M1868 3970 c-29 -29 -30 -34 -26 -97 5 -74 27 -103 79 -103 51 0 69
30 69 114 0 69 -2 76 -26 95 -36 29 -60 26 -96 -9z"/>
<path d="M2241 3547 l-216 -213 -57 14 c-80 20 -152 -2 -213 -63 -62 -61 -84
-137 -63 -215 l14 -55 -93 -96 c-54 -56 -93 -105 -93 -116 0 -37 38 -73 77
-73 31 0 47 11 128 91 82 80 95 89 113 80 33 -17 132 -13 177 8 49 23 99 74
119 123 18 43 21 124 6 164 -11 27 -4 35 200 239 196 197 210 213 210 247 0
40 -35 78 -73 78 -14 0 -96 -74 -236 -213z"/>
<path d="M1094 3191 c-26 -11 -54 -49 -54 -72 0 -9 9 -28 21 -43 19 -24 26
-26 95 -26 84 0 114 18 114 69 0 51 -29 74 -96 78 -32 1 -69 -1 -80 -6z"/>
<path d="M2620 3193 c-34 -13 -50 -37 -50 -74 0 -53 26 -69 110 -69 84 0 110
16 110 69 0 53 -26 74 -98 78 -31 1 -64 0 -72 -4z"/>
<path d="M1864 2449 c-29 -32 -27 -150 3 -180 29 -29 81 -28 105 2 27 32 25
152 -2 179 -27 27 -81 26 -106 -1z"/>
<path d="M22 2127 c-39 -41 -25 -97 29 -116 21 -7 165 -11 431 -11 331 0 404
3 427 15 46 23 56 80 21 115 -19 19 -33 20 -453 20 l-434 0 -21 -23z"/>
<path d="M261 1804 c-12 -15 -21 -37 -21 -50 0 -28 30 -61 62 -69 13 -3 137
-5 277 -3 252 3 253 3 272 27 25 30 24 72 -1 99 -20 22 -26 22 -295 22 l-274
0 -20 -26z"/>
<path d="M501 1484 c-26 -34 -27 -68 -1 -94 27 -27 56 -33 161 -29 81 4 93 6
110 28 26 32 24 73 -4 99 -21 20 -34 22 -134 22 -109 0 -112 -1 -132 -26z"/>
</g>
</svg>
